<svg width="99" height="101" viewBox="0 0 99 101" fill="none" xmlns="http://www.w3.org/2000/svg">
<g clip-path="url(#clip0_1_118)">
<path d="M19.0777 87.6188C17.5182 86.4123 16.0289 85.1028 14.617 83.6948C10.2918 79.3845 6.89572 74.3643 4.52379 68.7741C2.06622 62.9836 0.819588 56.8363 0.819588 50.4995C0.819588 44.1626 2.06503 38.0153 4.5226 32.2248C6.89572 26.6346 10.2918 21.6144 14.6158 17.3041C16.2217 15.7041 17.9251 14.2322 19.7189 12.8918" stroke="#F0E615" stroke-width="2.79" stroke-miterlimit="10" stroke-linecap="round" stroke-linejoin="round"/>
<path d="M47.9251 90.6148C37.1729 90.6148 27.0642 86.442 19.4619 78.8655C11.8596 71.289 7.67249 61.2154 7.67249 50.4995C7.67249 39.7836 11.8596 29.7112 19.4619 22.1335C27.0642 14.557 37.1729 10.3842 47.9251 10.3842C58.6772 10.3842 68.7859 14.557 76.3882 22.1335C83.9905 29.71 88.1777 39.7836 88.1777 50.4995C88.1777 61.2154 83.9905 71.2878 76.3882 78.8643C68.7859 86.442 58.6772 90.6148 47.9251 90.6148Z" fill="white"/>
<path d="M47.9251 3.55542C73.9401 3.55542 95.0305 24.5736 95.0305 50.4995C95.0305 76.4253 73.9401 97.4435 47.9251 97.4435" stroke="#F0E615" stroke-width="3" stroke-miterlimit="10" stroke-linecap="round" stroke-linejoin="round"/>
<path d="M22.1408 14.1445C23.8016 14.1445 25.1479 12.8031 25.1479 11.1485C25.1479 9.49382 23.8016 8.15247 22.1408 8.15247C20.48 8.15247 19.1336 9.49382 19.1336 11.1485C19.1336 12.8031 20.48 14.1445 22.1408 14.1445Z" stroke="#F0E615" stroke-width="5" stroke-miterlimit="10" stroke-linecap="round" stroke-linejoin="round"/>
<path d="M22.1408 92.8475C23.8016 92.8475 25.1479 91.5061 25.1479 89.8515C25.1479 88.1968 23.8016 86.8555 22.1408 86.8555C20.48 86.8555 19.1336 88.1968 19.1336 89.8515C19.1336 91.5061 20.48 92.8475 22.1408 92.8475Z" stroke="#F0E615" stroke-width="5" stroke-miterlimit="10" stroke-linecap="round" stroke-linejoin="round"/>
</g>
<defs>
<clipPath id="clip0_1_118">
<rect width="99" height="101" fill="white"/>
</clipPath>
</defs>
</svg>
