<svg width="822" height="707" viewBox="0 0 822 707" fill="none" xmlns="http://www.w3.org/2000/svg">
<path d="M803.134 98.2534V82.3665H787.23V98.2534H803.134Z" fill="#003B60"/>
<path d="M758.46 98.2534V82.3665H742.556V98.2534H758.46Z" fill="#003B60"/>
<path d="M713.786 98.2534V82.3665H697.882V98.2534H713.786Z" fill="#F0E615"/>
<path d="M669.113 98.2534V82.3665H653.209V98.2534H669.113Z" fill="#F0E615"/>
<path opacity="0.2" d="M158.86 660.529C226.858 660.529 281.982 605.464 281.982 537.539C281.982 469.613 226.858 414.549 158.86 414.549C90.8624 414.549 35.7391 469.613 35.7391 537.539C35.7391 605.464 90.8624 660.529 158.86 660.529Z" fill="#003B60"/>
<path d="M375.261 704.56C569.353 704.56 726.696 547.385 726.696 353.5C726.696 159.615 569.353 2.43945 375.261 2.43945C181.169 2.43945 23.8261 159.615 23.8261 353.5C23.8261 547.385 181.169 704.56 375.261 704.56Z" stroke="#003B60" stroke-width="0.8242" stroke-miterlimit="10"/>
<path d="M29.7826 303.518C46.2311 303.518 59.5652 290.198 59.5652 273.767C59.5652 257.337 46.2311 244.017 29.7826 244.017C13.3341 244.017 0 257.337 0 273.767C0 290.198 13.3341 303.518 29.7826 303.518Z" fill="#003B60"/>
<path d="M822 390.748C822 399.495 814.912 406.635 806.096 406.635C797.34 406.635 790.192 399.554 790.192 390.748C790.192 382.001 797.28 374.861 806.096 374.861C814.912 374.921 822 382.001 822 390.748Z" fill="#003B60"/>
<path d="M206.513 656.542C206.513 665.289 199.424 672.429 190.609 672.429C181.853 672.429 174.705 665.349 174.705 656.542C174.705 647.796 181.793 640.656 190.609 640.656C199.365 640.656 206.513 647.796 206.513 656.542Z" fill="white"/>
</svg>
