<svg width="128" height="128" viewBox="0 0 128 128" fill="none" xmlns="http://www.w3.org/2000/svg">
<g opacity="0.42" filter="url(#filter0_b_1_671)">
<circle cx="64" cy="64" r="64" fill="#ECECEC"/>
</g>
<g clip-path="url(#clip0_1_671)">
<path fill-rule="evenodd" clip-rule="evenodd" d="M86.1219 64.3114L54.4766 82.5826C54.4219 82.6141 54.36 82.6307 54.2969 82.6307C54.2338 82.6307 54.1718 82.6141 54.1172 82.5826C54.0626 82.551 54.0172 82.5057 53.9857 82.451C53.9541 82.3964 53.9375 82.3344 53.9375 82.2713V45.7292C53.9334 45.6654 53.9482 45.6018 53.9802 45.5464C54.0122 45.4911 54.0598 45.4464 54.1172 45.4182C54.1704 45.3826 54.2329 45.3637 54.2969 45.3637C54.3608 45.3637 54.4234 45.3826 54.4766 45.4182L86.1219 63.6891C86.1765 63.7207 86.2218 63.7661 86.2533 63.8207C86.2848 63.8753 86.3014 63.9372 86.3014 64.0003C86.3014 64.0633 86.2848 64.1253 86.2533 64.1799C86.2218 64.2345 86.1765 64.2798 86.1219 64.3114ZM87.5594 61.1994L55.9141 42.9291C55.4224 42.6453 54.8648 42.4958 54.2971 42.4958C53.7295 42.4958 53.1718 42.6451 52.6801 42.9289C52.1885 43.2126 51.7801 43.6208 51.4962 44.1124C51.2122 44.6039 51.0627 45.1615 51.0625 45.7292V82.2713C51.0601 82.84 51.2081 83.3992 51.4915 83.8922C51.7748 84.3852 52.1834 84.7946 52.6759 85.0789C53.1685 85.3631 53.7274 85.5121 54.296 85.5108C54.8647 85.5095 55.4229 85.3579 55.9141 85.0714L87.5594 66.8011C88.051 66.5172 88.4592 66.109 88.743 65.6173C89.0268 65.1257 89.1763 64.568 89.1763 64.0003C89.1763 63.4326 89.0268 62.8749 88.743 62.3832C88.4592 61.8916 88.051 61.4833 87.5594 61.1994ZM64 18C38.6355 18 18 38.6362 18 64C18 89.3638 38.6355 110.001 64 110.001C89.3645 110.001 110 89.3652 110 64C110 38.6348 89.3652 18 64 18Z" fill="#F0E615"/>
</g>
<defs>
<filter id="filter0_b_1_671" x="-73" y="-73" width="274" height="274" filterUnits="userSpaceOnUse" color-interpolation-filters="sRGB">
<feFlood flood-opacity="0" result="BackgroundImageFix"/>
<feGaussianBlur in="BackgroundImageFix" stdDeviation="36.5"/>
<feComposite in2="SourceAlpha" operator="in" result="effect1_backgroundBlur_1_671"/>
<feBlend mode="normal" in="SourceGraphic" in2="effect1_backgroundBlur_1_671" result="shape"/>
</filter>
<clipPath id="clip0_1_671">
<rect width="92" height="92" fill="white" transform="translate(18 18)"/>
</clipPath>
</defs>
</svg>
