<svg width="133" height="57" viewBox="0 0 133 57" fill="none" xmlns="http://www.w3.org/2000/svg">
<circle cx="28.5" cy="28.5" r="28" stroke="#262F30"/>
<path d="M36.9167 30.5417L18.5979 30.5417L24.1115 36.0553C24.2109 36.1514 24.2903 36.2663 24.3449 36.3934C24.3995 36.5205 24.4282 36.6572 24.4294 36.7955C24.4306 36.9338 24.4043 37.071 24.3519 37.199C24.2995 37.327 24.2222 37.4433 24.1244 37.5411C24.0266 37.6389 23.9103 37.7162 23.7822 37.7686C23.6542 37.821 23.5171 37.8474 23.3787 37.8462C23.2404 37.845 23.1037 37.8162 22.9767 37.7616C22.8496 37.707 22.7346 37.6277 22.6385 37.5282L15.3469 30.2365C15.1516 30.0412 15.0419 29.7763 15.0419 29.5001C15.0419 29.2238 15.1516 28.9589 15.3469 28.7636L22.6385 21.4719C22.835 21.2822 23.0981 21.1772 23.3712 21.1796C23.6444 21.1819 23.9056 21.2915 24.0988 21.4846C24.2919 21.6778 24.4015 21.939 24.4038 22.2121C24.4062 22.4853 24.3012 22.7484 24.1115 22.9449L18.5979 28.4584L36.9167 28.4584C37.1929 28.4584 37.4579 28.5681 37.6532 28.7635C37.8486 28.9588 37.9583 29.2238 37.9583 29.5001C37.9583 29.7763 37.8486 30.0413 37.6532 30.2366C37.4579 30.432 37.1929 30.5417 36.9167 30.5417Z" fill="#003B60"/>
<circle cx="104.5" cy="28.5" r="28.5" fill="#003B60"/>
<path d="M94.0833 28.4583L112.402 28.4583L106.889 22.9447C106.789 22.8486 106.71 22.7337 106.655 22.6066C106.601 22.4795 106.572 22.3428 106.571 22.2045C106.569 22.0662 106.596 21.929 106.648 21.801C106.7 21.673 106.778 21.5567 106.876 21.4589C106.973 21.3611 107.09 21.2838 107.218 21.2314C107.346 21.179 107.483 21.1526 107.621 21.1538C107.76 21.155 107.896 21.1838 108.023 21.2384C108.15 21.293 108.265 21.3723 108.361 21.4718L115.653 28.7635C115.848 28.9588 115.958 29.2237 115.958 29.4999C115.958 29.7762 115.848 30.0411 115.653 30.2364L108.361 37.5281C108.165 37.7178 107.902 37.8228 107.629 37.8204C107.356 37.8181 107.094 37.7085 106.901 37.5154C106.708 37.3222 106.599 37.061 106.596 36.7879C106.594 36.5147 106.699 36.2516 106.889 36.0551L112.402 30.5416L94.0833 30.5416C93.8071 30.5416 93.5421 30.4319 93.3468 30.2365C93.1514 30.0412 93.0417 29.7762 93.0417 29.4999C93.0417 29.2237 93.1514 28.9587 93.3468 28.7634C93.5421 28.568 93.8071 28.4583 94.0833 28.4583Z" fill="white"/>
</svg>
