<svg width="230" height="63" viewBox="0 0 230 63" fill="none" xmlns="http://www.w3.org/2000/svg">
<g clip-path="url(#clip0_1_730)">
<path fill-rule="evenodd" clip-rule="evenodd" d="M31.1864 62.3729H15.5932C11.4577 62.3727 7.49161 60.7298 4.56735 57.8055C1.64309 54.8813 0.000180917 50.9152 0 46.7797L0 15.5932C0.000180917 11.4577 1.64309 7.49161 4.56735 4.56735C7.49161 1.64309 11.4577 0.000180917 15.5932 0L46.7797 0C50.9152 0 54.8814 1.64285 57.8057 4.56715C60.73 7.49145 62.3729 11.4576 62.3729 15.5932V46.7797C62.3729 50.9152 60.73 54.8814 57.8057 57.8057C54.8814 60.73 50.9152 62.3729 46.7797 62.3729H40.9322C40.9322 61.0805 40.4188 59.8411 39.505 58.9272C38.5911 58.0134 37.3517 57.5 36.0593 57.5C34.767 57.5 33.5275 58.0134 32.6137 58.9272C31.6998 59.8411 31.1864 61.0805 31.1864 62.3729Z" fill="#3764B9"/>
<path fill-rule="evenodd" clip-rule="evenodd" d="M29.2373 17.5424H46.7797C49.0283 17.5422 51.191 16.6786 52.8211 15.1297C54.4512 13.5809 55.4243 11.4652 55.5394 9.2195C55.6545 6.97383 54.9027 4.76973 53.4395 3.06238C51.9762 1.35502 49.9131 0.274813 47.6763 0.0448305C47.3781 0.0282627 47.0828 0 46.7797 0H15.5932C11.4577 0.000180917 7.49161 1.64309 4.56735 4.56735C1.64309 7.49161 0.000180917 11.4577 0 15.5932L0 46.7797C0.000180924 39.0255 3.08059 31.589 8.5636 26.106C14.0466 20.623 21.4831 17.5426 29.2373 17.5424Z" fill="#507DD2"/>
<path fill-rule="evenodd" clip-rule="evenodd" d="M46.7797 31.1865C43.6956 31.1865 40.6808 32.101 38.1165 33.8144C35.5522 35.5278 33.5536 37.9631 32.3734 40.8124C31.1932 43.6617 30.8844 46.797 31.4861 49.8218C32.0877 52.8466 33.5728 55.625 35.7536 57.8058C37.9343 59.9865 40.7128 61.4716 43.7376 62.0733C46.7624 62.675 49.8976 62.3662 52.7469 61.186C55.5962 60.0058 58.0315 58.0071 59.745 55.4428C61.4584 52.8785 62.3729 49.8638 62.3729 46.7797V15.5933C62.3729 19.7288 60.73 23.695 57.8057 26.6193C54.8814 29.5436 50.9152 31.1865 46.7797 31.1865Z" fill="#1E4BA0"/>
<path fill-rule="evenodd" clip-rule="evenodd" d="M50.678 17.5425C50.678 18.0594 50.4726 18.5552 50.1071 18.9207C49.7415 19.2863 49.2458 19.4916 48.7288 19.4916H42.8814C42.3644 19.4916 41.8686 19.697 41.5031 20.0625C41.1376 20.428 40.9322 20.9238 40.9322 21.4408V29.2374H48.3C48.5884 29.2374 48.8731 29.3014 49.1338 29.4247C49.3944 29.5481 49.6245 29.7277 49.8073 29.9507C49.9901 30.1737 50.1212 30.4345 50.1911 30.7142C50.2609 30.994 50.2679 31.2858 50.2113 31.5686C49.8495 33.3783 49.3579 35.8362 49.0419 37.416C48.9535 37.8579 48.7148 38.2556 48.3663 38.5413C48.0179 38.827 47.5811 38.9831 47.1305 38.9831H40.9322V62.373H31.1864V38.9831H25.339C24.822 38.9831 24.3263 38.7778 23.9607 38.4122C23.5952 38.0467 23.3898 37.5509 23.3898 37.034V31.1865C23.3898 30.6696 23.5952 30.1738 23.9607 29.8083C24.3263 29.4427 24.822 29.2374 25.339 29.2374H31.1864V21.4408C31.1864 18.3391 32.4186 15.3644 34.6118 13.1712C36.805 10.978 39.7797 9.74585 42.8814 9.74585H48.7288C49.2458 9.74585 49.7415 9.95121 50.1071 10.3167C50.4726 10.6823 50.678 11.1781 50.678 11.695V17.5425Z" fill="white"/>
</g>
<g clip-path="url(#clip1_1_730)">
<path d="M145.119 11.1562C144.551 5.83698 140.35 1.63508 135.03 1.06785C121.69 -0.355948 108.31 -0.355948 94.9705 1.06785C89.6508 1.63555 85.4494 5.83698 84.8817 11.1562C83.4579 24.4962 83.4579 37.8762 84.8817 51.2161C85.4494 56.5358 89.6508 60.7373 94.97 61.305C108.31 62.7288 121.69 62.7288 135.03 61.305C140.35 60.7373 144.551 56.5358 145.119 51.2161C146.543 37.8762 146.543 24.4967 145.119 11.1562Z" fill="url(#paint0_radial_1_730)"/>
<path d="M141.726 13.4124C141.223 8.69227 137.495 4.96385 132.774 4.45991C120.936 3.19696 109.064 3.19696 97.2259 4.45991C92.5058 4.96385 88.7773 8.69227 88.2734 13.4124C87.0105 25.2501 87.0105 37.1229 88.2734 48.9601C88.7773 53.6807 92.5058 57.4091 97.2259 57.9126C109.064 59.176 120.936 59.176 132.774 57.9126C137.494 57.4091 141.223 53.6807 141.726 48.9601C142.99 37.1229 142.99 25.2501 141.726 13.4124Z" fill="url(#paint1_linear_1_730)"/>
<path d="M84.7482 49.9231C84.791 50.3542 84.8353 50.7854 84.8814 51.2165C85.4491 56.5357 89.6506 60.7372 94.9703 61.3049C108.31 62.7287 121.69 62.7287 135.03 61.3049C140.35 60.7372 144.551 56.5357 145.119 51.2165C145.165 50.7854 145.209 50.3542 145.252 49.9231H84.7482Z" fill="url(#paint2_linear_1_730)"/>
<path d="M145.119 51.2162C145.884 44.0483 146.237 36.8688 146.18 29.6904L131.923 15.4334C130.142 13.4 127.54 12.1309 124.483 12.021C118.196 11.7945 111.89 11.8059 105.602 12.0219C100.38 12.2018 96.7281 15.7118 95.7916 20.8707C95.6265 21.7815 95.5275 22.7042 95.3976 23.6217V38.7457C95.4695 39.2358 95.5751 39.7236 95.6079 40.2166C95.8173 43.3544 97.1069 46.0421 99.1717 47.8604L113.68 62.3682C120.8 62.4181 127.92 62.0641 135.03 61.3051C140.35 60.7374 144.551 56.536 145.119 51.2162Z" fill="url(#paint3_linear_1_730)"/>
<path d="M145.119 51.2166C144.551 56.5354 140.349 60.7378 135.03 61.305C127.921 62.0635 120.799 62.4181 113.68 62.3681L99.1941 47.8818C100.873 49.3517 103.062 50.2468 105.603 50.3425C111.889 50.5785 118.197 50.5723 124.483 50.3458C130.169 50.1402 134.283 45.9321 134.461 40.2465C134.65 34.2096 134.65 28.1571 134.461 22.1202C134.38 19.4973 133.459 17.1893 131.932 15.4429L146.18 29.6908C146.236 36.8683 145.883 44.0487 145.119 51.2166Z" fill="url(#paint4_linear_1_730)"/>
<path d="M122.36 24.4324C120.533 22.4438 117.913 21.196 115 21.196C109.483 21.196 105.01 25.6692 105.01 31.1864C105.01 34.0992 106.257 36.7198 108.246 38.5462L131.36 61.6604C132.584 61.5538 133.807 61.4354 135.03 61.305C140.349 60.7373 144.551 56.5358 145.119 51.2161C145.249 49.9936 145.367 48.7702 145.474 47.5467L122.36 24.4324Z" fill="url(#paint5_linear_1_730)"/>
<path d="M146.066 37.9052L127.463 19.3031C127.029 18.7335 126.345 18.3638 125.574 18.3638C124.261 18.3638 123.197 19.4278 123.197 20.7407C123.197 21.5121 123.567 22.1959 124.136 22.6299L145.733 44.2271C145.879 42.1205 145.99 40.0129 146.066 37.9052Z" fill="url(#paint6_linear_1_730)"/>
<path d="M95.3976 23.6217C95.5275 22.7042 95.6265 21.7815 95.7916 20.8707C96.7277 15.7118 100.38 12.2018 105.602 12.0219C111.89 11.8059 118.196 11.7945 124.483 12.021C130.167 12.2256 134.283 16.4342 134.461 22.1198C134.649 28.1572 134.649 34.2092 134.461 40.2466C134.283 45.9322 130.168 50.1403 124.484 50.3454C118.197 50.5724 111.889 50.5781 105.603 50.3421C99.9179 50.1284 95.9882 45.9103 95.6079 40.2161C95.5751 39.7236 95.4695 39.2353 95.3976 38.7452C95.3976 33.7039 95.3976 28.6625 95.3976 23.6217ZM115.005 46.9758C117.882 46.9758 120.762 47.0619 123.636 46.9558C128.141 46.7888 130.912 44.1001 131.017 39.5994C131.147 33.9913 131.147 28.3756 131.017 22.767C130.912 18.2672 128.139 15.5158 123.636 15.4201C117.92 15.2992 112.198 15.3002 106.482 15.4201C102.014 15.5138 99.2345 18.2096 99.1132 22.6599C98.959 28.3389 98.959 34.0279 99.1132 39.7069C99.2345 44.1568 102.014 46.7902 106.483 46.9558C109.32 47.0614 112.164 46.9758 115.005 46.9758Z" fill="url(#paint7_linear_1_730)"/>
<path d="M95.3976 23.6217C95.5275 22.7042 95.6265 21.7815 95.7916 20.8707C96.7277 15.7118 100.38 12.2018 105.602 12.0219C111.89 11.8059 118.196 11.7945 124.483 12.021C130.167 12.2256 134.283 16.4342 134.461 22.1198C134.649 28.1572 134.649 34.2092 134.461 40.2466C134.283 45.9322 130.168 50.1403 124.484 50.3454C118.197 50.5724 111.889 50.5781 105.603 50.3421C99.9179 50.1284 95.9882 45.9103 95.6079 40.2161C95.5751 39.7236 95.4695 39.2353 95.3976 38.7452C95.3976 33.7039 95.3976 28.6625 95.3976 23.6217ZM115.005 46.9758C117.882 46.9758 120.762 47.0619 123.636 46.9558C128.141 46.7888 130.912 44.1001 131.017 39.5994C131.147 33.9913 131.147 28.3756 131.017 22.767C130.912 18.2672 128.139 15.5158 123.636 15.4201C117.92 15.2992 112.198 15.3002 106.482 15.4201C102.014 15.5138 99.2345 18.2096 99.1132 22.6599C98.959 28.3389 98.959 34.0279 99.1132 39.7069C99.2345 44.1568 102.014 46.7902 106.483 46.9558C109.32 47.0614 112.164 46.9758 115.005 46.9758Z" fill="white"/>
<path d="M115 21.1965C109.483 21.1965 105.01 25.6692 105.01 31.1864C105.01 36.7041 109.483 41.1768 115 41.1768C120.518 41.1768 124.99 36.7041 124.99 31.1864C124.99 25.6692 120.518 21.1965 115 21.1965ZM115 37.7372C111.382 37.7372 108.449 34.8044 108.449 31.1864C108.449 27.5684 111.382 24.6356 115 24.6356C118.618 24.6356 121.551 27.5684 121.551 31.1864C121.551 34.8044 118.618 37.7372 115 37.7372Z" fill="white"/>
<path d="M127.95 20.7407C127.95 22.0532 126.886 23.1172 125.574 23.1172C124.261 23.1172 123.197 22.0532 123.197 20.7407C123.197 19.4278 124.261 18.3638 125.574 18.3638C126.886 18.3638 127.95 19.4278 127.95 20.7407Z" fill="white"/>
</g>
<g clip-path="url(#clip2_1_730)">
<path fill-rule="evenodd" clip-rule="evenodd" d="M214.407 62.3729H183.22C179.085 62.3727 175.119 60.7298 172.194 57.8055C169.27 54.8813 167.627 50.9152 167.627 46.7797V15.5932C167.627 11.4577 169.27 7.49161 172.194 4.56735C175.119 1.64309 179.085 0.000180917 183.22 0L214.407 0C218.542 0 222.509 1.64285 225.433 4.56715C228.357 7.49145 230 11.4576 230 15.5932V46.7797C230 50.9152 228.357 54.8814 225.433 57.8057C222.509 60.73 218.542 62.3729 214.407 62.3729Z" fill="#FF0000"/>
<path fill-rule="evenodd" clip-rule="evenodd" d="M196.864 17.5424H214.407C216.655 17.5422 218.818 16.6786 220.448 15.1297C222.078 13.5809 223.051 11.4652 223.167 9.2195C223.282 6.97383 222.53 4.76973 221.067 3.06238C219.603 1.35502 217.54 0.274813 215.303 0.0448305C215.005 0.0282627 214.71 0 214.407 0H183.22C179.085 0.000180917 175.119 1.64309 172.194 4.56735C169.27 7.49161 167.627 11.4577 167.627 15.5932V46.7797C167.627 39.0255 170.708 31.589 176.191 26.106C181.674 20.623 189.11 17.5426 196.864 17.5424Z" fill="#FF5A51"/>
<path fill-rule="evenodd" clip-rule="evenodd" d="M214.407 31.1865C211.323 31.1865 208.308 32.101 205.744 33.8144C203.179 35.5278 201.181 37.9631 200.001 40.8124C198.82 43.6617 198.511 46.797 199.113 49.8218C199.715 52.8466 201.2 55.625 203.381 57.8058C205.561 59.9865 208.34 61.4716 211.365 62.0733C214.389 62.675 217.525 62.3662 220.374 61.186C223.223 60.0058 225.659 58.0071 227.372 55.4428C229.085 52.8785 230 49.8638 230 46.7797V15.5933C230 19.7288 228.357 23.695 225.433 26.6193C222.509 29.5436 218.542 31.1865 214.407 31.1865Z" fill="#D5002C"/>
<path fill-rule="evenodd" clip-rule="evenodd" d="M192.038 17.4216C191.743 17.2397 191.405 17.1399 191.058 17.1325C190.711 17.1251 190.369 17.2104 190.066 17.3796C189.763 17.5487 189.511 17.7956 189.336 18.0948C189.16 18.3939 189.068 18.7345 189.068 19.0813V43.2917C189.068 43.6385 189.16 43.979 189.336 44.2782C189.511 44.5773 189.763 44.8242 190.066 44.9934C190.369 45.1625 190.711 45.2478 191.058 45.2404C191.405 45.2331 191.743 45.1333 192.038 44.9514C197.008 41.8942 206.929 35.7884 211.709 32.8462C211.993 32.6718 212.227 32.4277 212.389 32.1372C212.552 31.8467 212.637 31.5193 212.637 31.1865C212.637 30.8536 212.552 30.5263 212.389 30.2358C212.227 29.9452 211.993 29.7011 211.709 29.5268C206.929 26.5845 197.008 20.4788 192.038 17.4216Z" fill="white"/>
</g>
<defs>
<radialGradient id="paint0_radial_1_730" cx="0" cy="0" r="1" gradientUnits="userSpaceOnUse" gradientTransform="translate(96.5999 54.5089) scale(68.7863)">
<stop stop-color="#FAE100"/>
<stop offset="0.0544" stop-color="#FADC04"/>
<stop offset="0.1167" stop-color="#FBCE0E"/>
<stop offset="0.1829" stop-color="#FCB720"/>
<stop offset="0.2514" stop-color="#FE9838"/>
<stop offset="0.3054" stop-color="#FF7950"/>
<stop offset="0.4922" stop-color="#FF1C74"/>
<stop offset="1" stop-color="#6C1CD1"/>
</radialGradient>
<linearGradient id="paint1_linear_1_730" x1="107.736" y1="27.1006" x2="2.06912" y2="-32.3371" gradientUnits="userSpaceOnUse">
<stop stop-color="#A1B5D8" stop-opacity="0"/>
<stop offset="0.3094" stop-color="#90A2BD" stop-opacity="0.309804"/>
<stop offset="0.7554" stop-color="#7C8B9C" stop-opacity="0.756863"/>
<stop offset="1" stop-color="#748290"/>
</linearGradient>
<linearGradient id="paint2_linear_1_730" x1="115" y1="55.0593" x2="115" y2="64.7816" gradientUnits="userSpaceOnUse">
<stop stop-color="#FAE100" stop-opacity="0"/>
<stop offset="0.3068" stop-color="#FCA800" stop-opacity="0.305882"/>
<stop offset="0.6275" stop-color="#FE7300" stop-opacity="0.627451"/>
<stop offset="0.8685" stop-color="#FF5200" stop-opacity="0.866667"/>
<stop offset="1" stop-color="#FF4500"/>
</linearGradient>
<linearGradient id="paint3_linear_1_730" x1="111.452" y1="27.5499" x2="96.0153" y2="12.1136" gradientUnits="userSpaceOnUse">
<stop stop-color="#833AB4" stop-opacity="0"/>
<stop offset="1" stop-color="#833AB4"/>
</linearGradient>
<linearGradient id="paint4_linear_1_730" x1="126.561" y1="57.0477" x2="118.856" y2="20.7265" gradientUnits="userSpaceOnUse">
<stop stop-color="#833AB4" stop-opacity="0"/>
<stop offset="1" stop-color="#833AB4"/>
</linearGradient>
<linearGradient id="paint5_linear_1_730" x1="129.493" y1="45.6789" x2="98.5469" y2="14.7332" gradientUnits="userSpaceOnUse">
<stop stop-color="#833AB4" stop-opacity="0"/>
<stop offset="1" stop-color="#833AB4"/>
</linearGradient>
<linearGradient id="paint6_linear_1_730" x1="131.788" y1="26.9548" x2="121.555" y2="16.7216" gradientUnits="userSpaceOnUse">
<stop stop-color="#833AB4" stop-opacity="0"/>
<stop offset="1" stop-color="#833AB4"/>
</linearGradient>
<linearGradient id="paint7_linear_1_730" x1="127.384" y1="18.8885" x2="102.153" y2="44.1198" gradientUnits="userSpaceOnUse">
<stop stop-color="#833AB4"/>
<stop offset="0.0922" stop-color="#9C3495"/>
<stop offset="0.2927" stop-color="#DC2546"/>
<stop offset="0.392" stop-color="#FD1D1D"/>
<stop offset="0.5589" stop-color="#FC6831"/>
<stop offset="0.6887" stop-color="#FC9B40"/>
<stop offset="0.7521" stop-color="#FCAF45"/>
<stop offset="0.7806" stop-color="#FDB750"/>
<stop offset="0.8656" stop-color="#FECB6A"/>
<stop offset="0.9415" stop-color="#FFD87A"/>
<stop offset="1" stop-color="#FFDC80"/>
</linearGradient>
<clipPath id="clip0_1_730">
<rect width="62.3729" height="62.3729" fill="white"/>
</clipPath>
<clipPath id="clip1_1_730">
<rect width="62.3729" height="62.3729" fill="white" transform="translate(83.8136)"/>
</clipPath>
<clipPath id="clip2_1_730">
<rect width="62.3729" height="62.3729" fill="white" transform="translate(167.627)"/>
</clipPath>
</defs>
</svg>
