<svg width="36" height="17" viewBox="0 0 36 17" fill="none" xmlns="http://www.w3.org/2000/svg">
<path d="M35.1394 8.60737C35.1394 9.12014 34.7165 9.53969 34.1998 9.53969L9.91589 9.53969C9.39912 9.53969 8.9763 9.12014 8.9763 8.60737C8.9763 8.09459 9.39912 7.67505 9.91589 7.67505L34.1998 7.67504C34.7165 7.67504 35.1394 8.09459 35.1394 8.60737Z" fill="#003B60"/>
<path d="M2.32866 8.60737C2.32866 8.09246 1.90798 7.67505 1.38906 7.67505C0.870135 7.67505 0.449463 8.09246 0.449463 8.60737C0.449463 9.12227 0.870135 9.53969 1.38906 9.53969C1.90798 9.53969 2.32866 9.12227 2.32866 8.60737Z" fill="#003B60"/>
<path d="M6.58973 8.60737C6.58973 8.09246 6.16905 7.67505 5.65013 7.67505C5.1312 7.67505 4.71053 8.09246 4.71053 8.60737C4.71053 9.12227 5.1312 9.53969 5.65013 9.53969C6.16905 9.53969 6.58973 9.12227 6.58973 8.60737Z" fill="#003B60"/>
<path d="M35.1394 8.60737C35.1394 8.8218 35.0642 9.03623 34.9139 9.20871L28.6749 16.4948C28.3367 16.8864 27.7447 16.933 27.3501 16.602C26.9555 16.2711 26.9085 15.679 27.2421 15.2875L32.9642 8.60737L27.2421 1.92728C26.9085 1.53571 26.9555 0.948343 27.3501 0.612707C27.7447 0.277071 28.3367 0.32835 28.6749 0.719925L34.9139 8.00602C35.0642 8.1785 35.1394 8.39293 35.1394 8.60737Z" fill="#003B60"/>
</svg>
