<svg width="59" height="29" viewBox="0 0 59 29" fill="none" xmlns="http://www.w3.org/2000/svg">
<path d="M58.8095 14.454C58.8095 15.3233 58.0927 16.0345 57.2166 16.0345L16.0484 16.0346C15.1723 16.0346 14.4555 15.3233 14.4555 14.454C14.4555 13.5847 15.1723 12.8734 16.0484 12.8734L57.2166 12.8734C58.0927 12.8734 58.8095 13.5847 58.8095 14.454Z" fill="#003B60"/>
<path d="M3.18578 14.454C3.18578 13.5811 2.47262 12.8734 1.59289 12.8734C0.713162 12.8734 -3.84542e-08 13.5811 0 14.454C3.84542e-08 15.3269 0.713162 16.0346 1.59289 16.0346C2.47262 16.0346 3.18578 15.3269 3.18578 14.454Z" fill="#003B60"/>
<path d="M10.4095 14.454C10.4095 13.5811 9.69638 12.8734 8.81665 12.8734C7.93692 12.8734 7.22376 13.5811 7.22376 14.454C7.22376 15.3269 7.93692 16.0346 8.81665 16.0346C9.69638 16.0346 10.4095 15.3269 10.4095 14.454Z" fill="#003B60"/>
<path d="M58.8095 14.454C58.8095 14.8175 58.6821 15.181 58.4272 15.4735L47.8504 27.8255C47.277 28.4893 46.2734 28.5684 45.6044 28.0073C44.9354 27.4462 44.8558 26.4425 45.4213 25.7787L55.122 14.454L45.4213 3.1293C44.8558 2.46546 44.9354 1.46971 45.6044 0.900711C46.2734 0.33171 47.277 0.418644 47.8504 1.08248L58.4272 13.4345C58.6821 13.7269 58.8095 14.0905 58.8095 14.454Z" fill="#003B60"/>
</svg>
